PathFileType	4	(X/Y/Z)	c:/Users/goper/Files/vsCode/490R/osim_files/C11/C11_Slow_02.trc
DataRate	CameraRate	NumFrames	NumMarkers	Units                	OrigDataRate	OrigDataStartFrame	OrigNumFrames
120.00	120.00	8	36	mm	120.0	1152	1316
                Frame#	Time	LPSIS			LASIS			LTH1			LTH2			LTH3			LTH4			LLFE			LMFE			LSH1			LSH2			LSH3			LSH4			LLMAL			LMMAL			LCAL			LMTP5			LTOE			LMTP1			RPSIS			RASIS			RTH1			RTH2			RTH3			RTH4			RLFE			RMFE			RSH1			RSH2			RSH3			RSH4			RLMAL			RMMAL			RCAL			RMTP1			RTOE			RMTP5		
		X1	Y1	Z1	X2	Y2	Z2	X3	Y3	Z3	X4	Y4	Z4	X5	Y5	Z5	X6	Y6	Z6	X7	Y7	Z7	X8	Y8	Z8	X9	Y9	Z9	X10	Y10	Z10	X11	Y11	Z11	X12	Y12	Z12	X13	Y13	Z13	X14	Y14	Z14	X15	Y15	Z15	X16	Y16	Z16	X17	Y17	Z17	X18	Y18	Z18	X19	Y19	Z19	X20	Y20	Z20	X21	Y21	Z21	X22	Y22	Z22	X23	Y23	Z23	X24	Y24	Z24	X25	Y25	Z25	X26	Y26	Z26	X27	Y27	Z27	X28	Y28	Z28	X29	Y29	Z29	X30	Y30	Z30	X31	Y31	Z31	X32	Y32	Z32	X33	Y33	Z33	X34	Y34	Z34	X35	Y35	Z35	X36	Y36	Z36

1152	9.59167	-3857.72827	983.20319	280.25388	-4038.92090	996.75732	341.61725	-4112.71289	623.15326	405.88937	-4128.89160	579.64496	398.84781	-4060.05151	600.62927	382.03812	-4084.28174	559.52478	381.73340	0.00000	0.00000	0.00000	-4128.55908	506.60056	386.67819	0.00000	0.00000	0.00000	-4122.87158	349.13412	367.99405	-4163.96143	405.43826	403.10843	-4169.35645	360.38074	396.17508	-4249.75195	100.20986	321.32983	-4310.56836	152.64932	261.98816	-4240.12549	61.00014	246.16817	-4351.98096	90.04369	405.74442	-4422.26221	150.72806	379.05722	-4422.25049	130.98123	322.71750	0.00000	0.00000	0.00000	-4023.05249	984.15906	109.43736	-3885.27637	636.42291	78.00315	0.00000	0.00000	0.00000	-3948.23877	627.90234	87.50757	-3935.63794	585.93805	90.66413	-3881.92822	505.61646	103.21992	-3862.56445	492.30035	215.09938	-3780.49976	416.69656	92.48536	0.00000	0.00000	0.00000	-3843.33350	399.92731	98.28313	-3824.31348	357.31592	99.91365	-3710.82104	118.93789	156.62970	-3739.43213	118.52695	245.88205	-3641.87744	81.25418	212.05391	-3864.60132	61.87406	216.86047	-3863.64526	72.32714	165.98529	-3810.89502	49.58064	105.23483
1153	9.60000	-3866.82886	982.15765	281.67365	-4048.41626	995.58612	342.08929	-4122.02002	621.91833	405.98822	-4138.07715	578.44977	398.63956	-4069.03296	599.65656	382.49490	-4093.33276	558.49542	381.98416	0.00000	0.00000	0.00000	-4137.06396	505.41135	386.39258	0.00000	0.00000	0.00000	-4128.22754	348.17197	367.88824	-4170.51953	403.62506	402.70859	-4174.98486	358.44916	395.63586	-4249.65967	98.51424	319.80286	-4311.90723	149.68945	260.87085	-4239.94189	59.48035	244.68401	-4348.68896	80.97504	400.05447	-4423.61621	144.89954	377.81088	-4423.68506	126.11169	321.57434	0.00000	0.00000	0.00000	-4031.34692	982.91364	109.69569	-3891.66089	635.62128	78.66204	0.00000	0.00000	0.00000	-3954.53223	626.77863	87.74093	-3941.76465	585.00378	90.95340	-3887.77124	504.95383	103.74567	-3868.84888	491.48752	215.58354	-3785.52417	417.04382	92.98928	0.00000	0.00000	0.00000	-3847.77588	399.58942	98.71358	-3828.22095	357.23724	100.30634	-3711.62012	120.09454	156.70984	-3740.53662	119.45885	245.93991	-3642.86304	82.71937	212.28809	-3864.84766	61.76159	216.78581	-3863.94238	72.06870	165.90288	-3811.01440	49.60145	105.28912
1154	9.60833	-3875.71362	981.21661	283.09158	-4057.97095	994.30579	342.73254	0.00000	0.00000	0.00000	-4147.02783	577.11249	398.34491	-4077.97119	598.68311	383.06207	-4101.86914	557.31183	382.13431	0.00000	0.00000	0.00000	-4145.28906	504.27414	386.45807	0.00000	0.00000	0.00000	-4133.35742	347.09534	367.66284	-4176.88330	401.82867	402.31781	-4180.66699	356.65652	395.02774	-4251.88232	98.33153	318.65497	-4315.56982	147.67264	259.67419	-4241.36328	59.23812	243.65587	-4351.45020	79.43002	399.70090	-4426.86719	141.52536	377.28564	-4426.00391	122.31981	320.86899	0.00000	0.00000	0.00000	-4039.94629	981.50317	110.02322	-3898.37402	635.06274	79.34734	0.00000	0.00000	0.00000	-3960.89697	625.68414	88.05370	-3947.95996	584.09381	91.35178	-3892.91748	504.62146	104.40289	-3875.13623	490.75681	216.15796	-3791.62158	419.61212	96.44242	0.00000	0.00000	0.00000	-3852.25171	399.35983	99.11306	-3830.60547	355.31131	101.60139	-3712.46924	121.50344	156.63698	-3741.44092	120.25147	245.87433	-3643.18896	84.72766	212.18571	-3865.08545	61.68945	216.70700	-3864.24829	71.86580	165.79282	-3811.14844	49.65104	105.33154
1155	9.61667	-3884.51392	980.39056	284.50436	-4067.39380	993.09686	343.47806	0.00000	0.00000	0.00000	-4155.40527	575.86456	397.89551	-4086.34375	597.80377	383.57410	-4109.90137	556.39813	382.20206	0.00000	0.00000	0.00000	-4152.69287	503.26556	386.72592	0.00000	0.00000	0.00000	-4139.18652	345.83273	367.46381	-4183.16895	400.44058	401.77969	-4186.75244	355.26523	394.42596	-4254.99902	98.95616	316.56674	-4322.22949	145.85454	258.13397	-4244.60010	60.27258	243.05466	-4354.08252	78.30486	398.90204	-4432.82422	138.45198	376.70236	-4430.72607	117.61015	320.37231	0.00000	0.00000	0.00000	-4048.62817	980.15027	110.47942	-3902.64697	634.69922	82.03776	0.00000	0.00000	0.00000	-3967.52515	624.70563	88.45727	-3954.32153	583.16486	91.77781	-3898.69336	504.04214	104.99874	-3881.13647	489.95236	216.78586	-3796.32666	420.47266	97.01607	0.00000	0.00000	0.00000	-3856.91846	399.26910	99.53006	-3837.20142	355.70676	101.27200	-3713.56128	123.04581	156.37755	-3742.59204	121.53168	245.61075	-3643.62646	86.97584	211.92122	-3865.33984	61.64981	216.59421	-3864.64380	71.67376	165.59897	-3811.24902	49.65848	105.31174
1156	9.62500	-3893.82471	979.53607	285.80646	-4076.76929	992.09082	344.37347	-4148.75049	618.97894	406.88168	-4164.55518	575.68378	399.80997	-4093.69336	597.27728	383.93268	-4116.96533	555.61646	382.64539	0.00000	0.00000	0.00000	-4159.10254	502.13968	387.09756	0.00000	0.00000	0.00000	-4146.18604	345.16263	369.70111	-4189.80273	399.48785	401.37054	-4193.73633	354.29477	394.06351	-4262.76514	100.91154	317.32507	-4330.68164	143.48737	256.12323	-4248.22168	61.70003	242.38962	-4361.41699	81.00204	402.46967	-4440.32471	132.03087	375.69778	-4436.85938	110.52812	319.35745	0.00000	0.00000	0.00000	-4057.63281	978.91840	111.02168	-3909.53687	634.25330	82.74666	0.00000	0.00000	0.00000	-3974.37231	623.81982	88.97050	-3960.84912	582.24768	92.38098	-3904.79321	503.50290	105.71377	-3887.36084	489.49042	217.35487	-3801.37524	421.22321	97.60872	0.00000	0.00000	0.00000	-3861.78833	399.34714	100.01322	-3840.48169	357.86584	101.41521	-3714.58130	124.77097	156.04407	-3743.59570	122.72402	245.26315	-3644.66870	89.26401	211.66740	-3865.60889	61.61845	216.46292	-3865.04736	71.43888	165.37277	-3811.40820	49.63047	105.23110
1157	9.63333	-3904.63184	979.73352	288.56754	-4086.09033	991.34552	345.48114	-4155.80420	618.17670	407.20792	-4171.12646	574.64264	400.23691	-4100.46631	596.70880	384.36801	-4123.53076	554.90869	383.27951	0.00000	0.00000	0.00000	-4165.55322	500.95016	387.67911	0.00000	0.00000	0.00000	-4154.35400	343.14005	368.10455	-4197.59863	398.83380	401.78629	-4201.81104	353.48862	394.57047	-4269.03857	101.10152	317.12589	-4338.55469	140.53191	254.42300	-4252.05859	62.80012	242.05350	-4362.78760	74.39963	396.35300	-4448.27734	123.55762	374.03418	-4442.99365	101.92117	317.60886	0.00000	0.00000	0.00000	-4066.84204	977.84332	111.80654	-3917.61035	634.31897	83.07777	0.00000	0.00000	0.00000	-3981.55396	623.09753	89.65919	-3967.79712	581.65588	93.06217	-3911.21240	503.16028	106.37887	-3893.40869	489.17874	218.00249	-3806.84839	422.17480	98.06797	0.00000	0.00000	0.00000	-3866.90332	399.66287	100.49499	-3845.05933	358.51270	101.77425	-3715.91333	126.78431	155.57144	-3744.86450	124.31886	244.90977	-3645.53149	91.99631	211.28441	-3865.90332	61.57756	216.26262	-3865.46777	71.18146	165.12689	-3811.55664	49.62904	105.16468
1158	9.64167	-3912.37964	978.87085	287.72726	-4095.42236	990.86450	346.86041	-4161.33594	616.38147	406.74988	-4175.97070	572.60815	399.07330	-4107.19727	595.92633	385.18777	-4130.12842	553.94342	383.97345	0.00000	0.00000	0.00000	-4174.47949	501.05618	390.46561	0.00000	0.00000	0.00000	-4163.01562	342.03561	370.05789	-4206.24268	397.95255	402.96835	-4210.58252	352.70279	395.80377	-4274.20361	100.43493	317.56622	-4344.17188	137.76541	253.45747	-4253.92871	64.07935	242.14943	-4367.99805	69.63315	394.72067	-4455.29883	115.15524	371.45801	-4447.75342	94.00648	314.93036	0.00000	0.00000	0.00000	-4076.30371	976.99915	112.76212	-3924.84131	633.98315	84.28863	0.00000	0.00000	0.00000	-3989.03394	622.54352	90.46982	-3975.00854	581.12061	93.82967	-3919.11523	502.41141	107.00314	-3899.89429	489.38159	218.53235	-3812.35815	423.63394	98.49249	0.00000	0.00000	0.00000	-3872.22754	400.13394	100.89168	-3849.79053	359.28009	102.05213	-3717.35938	128.90819	155.15942	-3746.46582	126.15725	244.45062	-3646.66992	95.11332	210.96835	-3866.30151	61.54379	216.03531	-3865.97388	71.01402	164.86574	-3811.75293	49.69891	105.13483
1159	9.65000	-3921.83691	978.66541	288.63272	-4104.69141	990.43799	348.34497	-4168.73145	615.18256	407.78537	-4183.35938	571.48462	399.93790	-4114.58691	594.94946	386.33005	-4137.26514	552.97467	384.89700	0.00000	0.00000	0.00000	-4180.13867	499.10135	389.51578	0.00000	0.00000	0.00000	-4171.36475	342.01917	374.68152	-4215.24219	396.98972	404.29196	-4219.34424	351.74832	397.33087	-4278.50293	99.63394	318.36853	-4347.84521	135.65431	252.93681	-4255.31982	64.78499	242.92159	-4376.30664	68.60761	397.44702	-4461.15039	108.04628	368.11789	-4451.39600	87.86609	311.58426	0.00000	0.00000	0.00000	-4086.04565	976.32666	114.00190	-3932.65259	633.84027	85.23656	0.00000	0.00000	0.00000	-3996.79590	622.11157	91.30354	-3982.61426	580.86218	94.59782	-3925.83423	502.67905	107.38477	-3906.64380	489.39279	219.09744	-3818.36743	425.12943	98.97712	0.00000	0.00000	0.00000	-3877.87378	400.84305	101.22364	-3854.71875	360.28555	102.28487	-3718.91650	131.30125	154.61409	-3748.05225	128.19670	243.89998	-3647.69971	98.68473	210.58170	-3866.75684	61.61923	215.87198	-3866.60400	70.82792	164.56984	-3811.98657	49.86554	105.07648
